<svg width="274" height="497" viewBox="0 0 274 497" fill="none" xmlns="http://www.w3.org/2000/svg">
<g clip-path="url(#clip0)">
<path d="M266.26 250.34L240.33 247L223.39 310.14C215.78 359.49 216.6 372.04 219.39 372.73C223.31 373.73 232.23 351.11 239.54 332.43C250.03 305.608 258.952 278.198 266.26 250.34Z" fill="#FF9D7B"/>
<path d="M29.6104 284.24C29.6104 284.24 76.7104 346.42 93.6104 346.17C110.51 345.92 143.61 240.5 143.61 240.5L111.31 230.82L83.4504 296.26L37.0204 258.74L29.6104 284.24Z" fill="#FF9D7B"/>
<path d="M29.8502 284.55L22.7702 274.65C18.0528 274.672 13.4168 273.421 9.35019 271.03C6.68176 269.6 4.40253 267.54 2.71019 265.03C0.653607 261.721 -0.263077 257.829 0.100191 253.95C1.10019 244.83 10.1702 236.95 15.7102 238.25C19.2402 239.08 20.3902 243.41 23.1202 242.9C24.8502 242.57 24.9302 240.71 27.5202 237.67C30.1102 234.63 35.1302 230.67 38.0702 231.99C38.6198 232.264 39.0913 232.673 39.4409 233.178C39.7906 233.684 40.007 234.269 40.0702 234.88C40.2202 237.35 36.8502 238.05 34.2902 242.66C33.5747 244.036 32.9792 245.472 32.5102 246.95C31.8355 248.864 31.2778 250.818 30.8402 252.8C32.0402 253.8 33.7502 255.24 35.7302 257.13C36.2202 257.6 37.7302 259.02 38.5402 259.95C40.9902 262.69 42.9702 267.05 42.9602 270.55C42.9402 276.23 37.6302 282.07 29.8502 284.55Z" fill="#FF9D7B"/>
<path opacity="0.5" d="M96.0503 267.95L112.26 229.82L144.56 239.5C144.56 239.5 137.96 260.5 129.15 283.84C117.28 281.47 105.62 275.49 96.0503 267.95Z" fill="#FE7B64"/>
<path d="M106.31 374.95C106.31 374.95 91.5101 453.25 96.2701 496.34H153.73L154.2 450.77H164.97L180.23 496.34H241.73C241.73 496.34 217.64 383.34 217.64 372.56C217.64 361.78 106.31 374.95 106.31 374.95Z" fill="#FFA755"/>
<path d="M118.73 393.62C139.611 397.893 160.832 400.286 182.14 400.77C195.399 401.063 208.663 400.609 221.87 399.41C219.36 385.8 217.64 375.41 217.64 372.56C217.64 361.79 106.31 374.95 106.31 374.95C106.31 374.95 105.31 380.63 104.01 389.78C108.839 391.343 113.754 392.625 118.73 393.62Z" fill="#FF8232"/>
<path d="M98.5102 434.34C96.1602 458.13 94.2302 477.92 96.2802 496.39H153.74L154.21 450.82H154.32C154.1 450.12 125.45 445.69 98.5102 434.34Z" fill="#FF8232"/>
<path d="M156.21 206.63C156.21 206.63 123.21 191.73 109.92 223.63C96.6304 255.53 93.9204 260.34 93.9204 260.34L124.25 274.18L156.21 206.63Z" fill="#5997C0"/>
<path d="M111.78 219.73C111.13 220.95 110.51 222.25 109.92 223.65C96.6204 255.57 93.9204 260.36 93.9204 260.36L124.25 274.2L133.65 254.34C124.96 243.79 118.03 231.95 111.78 219.73Z" fill="#467E9C"/>
<path d="M253.43 198.74C255.98 199.285 258.431 200.216 260.7 201.5C265.718 204.451 269.66 208.929 271.95 214.28C273.75 218.62 273.6 222.95 273.51 231.62C273.519 236.455 273.148 241.283 272.4 246.06C269.4 264.34 260.17 279.87 260.17 279.87L228.93 271.71C237.104 247.39 245.27 223.067 253.43 198.74Z" fill="#5997C0"/>
<path d="M273.51 231.62C273.367 248.205 268.93 264.47 260.63 278.83L229.39 270.67L237.65 248.72C251.256 247.464 263.97 241.402 273.51 231.62Z" fill="#467E9C"/>
<path d="M170.84 180.16C170.84 180.16 172.84 204.1 161.67 206.49C150.5 208.88 132.94 192.92 127.75 216.49C122.83 238.82 238.86 260.25 246.26 242.83C250.79 232.17 223.46 201.72 217.73 198.01C214.892 196.28 212.525 193.876 210.84 191.01C210.325 190.088 209.88 189.129 209.51 188.14C207.89 183.69 212.2 164.6 220.68 139.45L170.84 180.16Z" fill="#FF9D7B"/>
<path opacity="0.5" d="M206.38 168.7C204.56 164.32 202.69 160.05 200.7 155.79L170.84 180.16C170.84 180.16 171.84 192.38 168.36 200.23C171.056 199.92 173.729 199.432 176.36 198.77C183.71 196.95 191.93 194.39 197.12 188.57C201.256 183.713 204.938 178.488 208.12 172.96C207.554 171.553 206.974 170.133 206.38 168.7Z" fill="#D3584F"/>
<path d="M156.21 206.63C156.21 206.63 157.21 228.44 180.21 228.44C207.87 228.44 217.45 197.58 217.45 197.58C227.93 197.27 248.52 196.94 255.04 199.17C256.47 199.66 261.37 201.34 261.21 202.02C261.204 202.045 261.193 202.069 261.178 202.089C261.162 202.11 261.143 202.127 261.12 202.14L245.12 255.57C245.12 255.57 216.92 349.75 222.24 381.14C222.24 381.14 145.62 402.42 101.99 377.42C101.99 377.42 109.87 255.07 124.34 214.07C130.67 195.98 156.21 206.63 156.21 206.63Z" fill="#5997C0"/>
<path d="M238.45 279.27C237.52 280.12 236.58 280.95 235.62 281.77C227.72 288.41 218.94 293.47 209.85 298.31C199.4 303.88 188.78 309.17 177.91 313.89C157.06 322.95 135.33 330.33 112.86 334.13C110.35 334.56 107.86 334.94 105.31 335.28C103.09 359.59 101.94 377.42 101.94 377.42C145.57 402.42 222.19 381.14 222.19 381.14C218.57 359.77 230.51 309.34 238.45 279.27Z" fill="#467E9C"/>
<path d="M215.05 144.24C215.05 144.24 220.39 121.76 228.42 132.24C236.45 142.72 222.18 159.34 214.26 154.18C206.34 149.02 215.05 144.24 215.05 144.24Z" fill="#F19C7C"/>
<path d="M195.94 94.05C195.94 94.05 172.85 91.34 166 107.23C159.15 123.12 139.58 184.16 168.84 182.44C198.1 180.72 213.73 171.44 219.79 130.44C225.85 89.44 195.94 94.05 195.94 94.05Z" fill="#FF9D7B"/>
<path d="M161.85 118.02C161.972 116.274 162.676 114.619 163.85 113.32C164.513 112.552 165.375 111.982 166.34 111.67C167.412 111.315 168.569 111.315 169.64 111.67C171.427 112.347 172.895 113.671 173.75 115.38C174.585 116.86 174.996 118.542 174.94 120.24C173.61 119.17 172.52 118.11 171.44 117.18C170.57 116.337 169.553 115.659 168.44 115.18C168.044 115.036 167.619 114.985 167.2 115.03C166.663 115.103 166.144 115.276 165.67 115.54C164.51 116.15 163.3 117.11 161.85 118.02Z" fill="#352836"/>
<path d="M174.51 122.5C174.275 124.412 173.898 126.304 173.38 128.16C172.888 130.026 172.28 131.86 171.56 133.65C170.858 135.464 170.019 137.223 169.05 138.91C168.083 140.648 166.893 142.251 165.51 143.68L165.07 142.09C165.84 142.34 166.59 142.62 167.36 142.88C168.13 143.14 168.88 143.44 169.64 143.73C171.15 144.31 172.64 144.92 174.13 145.63C172.5 145.47 170.9 145.21 169.3 144.92C168.51 144.77 167.71 144.63 166.92 144.46C166.13 144.29 165.33 144.13 164.55 143.94L163.14 143.6L164.14 142.36L164.97 141.3C165.24 140.94 165.48 140.54 165.74 140.17C166.24 139.41 166.74 138.62 167.17 137.81C168.09 136.2 168.9 134.51 169.72 132.81C171.35 129.44 172.85 125.97 174.51 122.5Z" fill="#D3584F"/>
<path d="M220.05 150.48C220.437 149.996 220.772 149.473 221.05 148.92C221.321 148.481 221.427 147.96 221.35 147.45C221.25 147.12 220.93 146.94 220.45 146.78L219.69 146.61L218.85 146.53L217.85 146.44L218.1 145.38C218.473 143.695 219.009 142.051 219.7 140.47C220.039 139.653 220.447 138.867 220.92 138.12C221.412 137.29 222.049 136.555 222.8 135.95C223.266 135.58 223.821 135.338 224.41 135.25C225.052 135.17 225.701 135.323 226.24 135.68C226.634 135.975 226.996 136.31 227.32 136.68C227.63 137.039 227.898 137.431 228.12 137.85C228.571 138.695 228.753 139.658 228.64 140.61C228.535 141.501 228.154 142.337 227.55 143C227.831 142.276 227.92 141.492 227.806 140.724C227.692 139.956 227.38 139.231 226.9 138.62C226.667 138.341 226.413 138.08 226.14 137.84C225.878 137.614 225.594 137.416 225.29 137.25C225.114 137.161 224.912 137.136 224.72 137.18C224.486 137.26 224.274 137.393 224.1 137.57C223.589 138.065 223.151 138.631 222.8 139.25C222.41 139.92 222.05 140.63 221.7 141.35C221.04 142.81 220.4 144.35 219.85 145.86L219.09 144.71L220.09 144.95C220.42 145.06 220.76 145.2 221.09 145.34C221.443 145.536 221.76 145.79 222.03 146.09C222.329 146.439 222.498 146.881 222.51 147.34C222.473 148.096 222.152 148.811 221.61 149.34C221.147 149.792 220.621 150.176 220.05 150.48Z" fill="#D3584F"/>
<path d="M168.61 126.66C167.96 129.26 166.67 131.17 165.72 130.94C164.77 130.71 164.52 128.4 165.17 125.8C165.82 123.2 167.1 121.29 168.05 121.52C169 121.75 169.25 124.06 168.61 126.66Z" fill="#352836"/>
<path d="M192.9 129.69C192.26 132.29 190.96 134.21 190.01 133.98C189.06 133.75 188.82 131.44 189.46 128.84C190.1 126.24 191.4 124.32 192.35 124.56C193.3 124.8 193.51 127.09 192.9 129.69Z" fill="#352836"/>
<path d="M187.02 120.87C187.147 119.125 187.851 117.472 189.02 116.17C189.692 115.407 190.555 114.838 191.52 114.52C192.593 114.175 193.747 114.175 194.82 114.52C196.606 115.199 198.072 116.523 198.93 118.23C199.755 119.714 200.166 121.393 200.12 123.09C198.79 122.02 197.69 120.96 196.62 120.09C195.751 119.245 194.734 118.567 193.62 118.09C193.223 117.95 192.799 117.902 192.38 117.95C191.842 118.014 191.322 118.184 190.85 118.45C189.67 119 188.51 119.96 187.02 120.87Z" fill="#352836"/>
<path d="M123.007 106.013C103.877 114.335 83.644 116.877 62.3067 113.64C48.2733 111.55 35.4238 106.577 25.3681 99.3438C15.0335 92.0701 7.5202 83.0368 3.55164 73.1135C-0.558587 63.2853 -1.11106 52.884 1.945 42.8654C6.41728 28.1103 17.0765 16.6617 33.9228 8.51981C50.769 0.377885 70.8097 -1.92844 94.0449 1.60084C116.792 5.05035 134.507 13.2687 147.191 26.2559C159.875 39.2431 163.821 53.6094 159.029 69.3549C154.153 85.446 142.145 97.6655 123.007 106.013Z" fill="#5997C0"/>
<path d="M97.0303 100.83L137.5 144.87L112.26 96.11L97.0303 100.83Z" fill="#6F96BD"/>
<path d="M239.38 101.62C238.38 89.26 223.69 91.55 223.69 91.55C223.69 91.55 225.77 72.21 211.51 68.4C197.25 64.59 190.13 85.4 176.44 74C162.75 62.6 157.67 70.13 150.61 77.3C150.61 77.3 158.92 71.78 162.92 79.18C162.92 79.18 153.49 70.93 147.71 86.87C147.71 86.87 152.16 79.4 159.57 82.99C155.99 83.29 153.33 84.4 152.57 86.68C148.47 98.99 167.92 112.49 187.38 107.91C206.84 103.33 214.99 99.61 214.99 99.61C214.99 99.61 203.47 115.09 217.64 121.05C217.64 121.05 205.16 164.05 194.64 165.56C184.12 167.07 197.64 149.92 184.58 148.11C171.52 146.3 160.68 141.69 155.58 163.54C152.16 178.15 152.91 155.07 152.91 155.07C152.91 155.07 141.86 181.54 152.05 186.86C162.24 192.18 204.21 201.58 212.85 162.54C219.43 132.79 221.98 125.74 228.33 131.83C228.26 131.83 240.35 113.99 239.38 101.62Z" fill="#352836"/>
<path d="M184.64 154.67C184.64 154.67 165.49 172.46 160.76 154.52L184.64 154.67Z" fill="white"/>
<path d="M19.4316 59.2637C19.321 60.7936 18.7546 61.998 17.7324 62.877C16.7168 63.7559 15.3757 64.1953 13.709 64.1953C11.8861 64.1953 10.4505 63.5833 9.40234 62.3594C8.36068 61.1289 7.83984 59.4427 7.83984 57.3008V56.4316C7.83984 55.0645 8.08073 53.86 8.5625 52.8184C9.04427 51.7767 9.73112 50.9792 10.623 50.4258C11.5215 49.8659 12.5632 49.5859 13.748 49.5859C15.3887 49.5859 16.7103 50.0254 17.7129 50.9043C18.7155 51.7832 19.2949 53.0169 19.4512 54.6055H16.5215C16.4499 53.6875 16.1927 53.0234 15.75 52.6133C15.3138 52.1966 14.6465 51.9883 13.748 51.9883C12.7715 51.9883 12.0391 52.3398 11.5508 53.043C11.069 53.7396 10.8216 54.8236 10.8086 56.2949V57.3691C10.8086 58.9056 11.0397 60.0286 11.502 60.7383C11.9707 61.4479 12.7064 61.8027 13.709 61.8027C14.6139 61.8027 15.2878 61.5977 15.7305 61.1875C16.1797 60.7708 16.4368 60.1296 16.502 59.2637H19.4316ZM20.7305 58.6191C20.7305 57.571 20.9323 56.6367 21.3359 55.8164C21.7396 54.9961 22.319 54.3613 23.0742 53.9121C23.8359 53.4629 24.7181 53.2383 25.7207 53.2383C27.1465 53.2383 28.3086 53.6745 29.207 54.5469C30.112 55.4193 30.6165 56.6042 30.7207 58.1016L30.7402 58.8242C30.7402 60.4453 30.2878 61.7474 29.3828 62.7305C28.4779 63.707 27.2637 64.1953 25.7402 64.1953C24.2168 64.1953 22.9993 63.707 22.0879 62.7305C21.1829 61.7539 20.7305 60.4258 20.7305 58.7461V58.6191ZM23.5527 58.8242C23.5527 59.8268 23.7415 60.5951 24.1191 61.1289C24.4967 61.6562 25.0371 61.9199 25.7402 61.9199C26.4238 61.9199 26.9577 61.6595 27.3418 61.1387C27.7259 60.6113 27.918 59.7715 27.918 58.6191C27.918 57.6361 27.7259 56.8743 27.3418 56.334C26.9577 55.7936 26.4173 55.5234 25.7207 55.5234C25.0306 55.5234 24.4967 55.7936 24.1191 56.334C23.7415 56.8678 23.5527 57.6979 23.5527 58.8242ZM35.0762 53.4336L35.1641 54.6543C35.9193 53.7103 36.9316 53.2383 38.2012 53.2383C39.321 53.2383 40.1543 53.5671 40.7012 54.2246C41.248 54.8822 41.528 55.8652 41.541 57.1738V64H38.7188V57.2422C38.7188 56.6432 38.5885 56.2103 38.3281 55.9434C38.0677 55.6699 37.6348 55.5332 37.0293 55.5332C36.235 55.5332 35.6393 55.8717 35.2422 56.5488V64H32.4199V53.4336H35.0762ZM43.2793 58.6387C43.2793 57.0176 43.6634 55.7122 44.4316 54.7227C45.2064 53.7331 46.248 53.2383 47.5566 53.2383C48.7155 53.2383 49.6172 53.6354 50.2617 54.4297L50.3789 53.4336H52.9375V63.6484C52.9375 64.5729 52.7259 65.377 52.3027 66.0605C51.8861 66.7441 51.2969 67.265 50.5352 67.623C49.7734 67.9811 48.8815 68.1602 47.8594 68.1602C47.0846 68.1602 46.3294 68.0039 45.5938 67.6914C44.8581 67.3854 44.3014 66.9883 43.9238 66.5L45.1738 64.7812C45.877 65.569 46.7298 65.9629 47.7324 65.9629C48.4811 65.9629 49.0638 65.7611 49.4805 65.3574C49.8971 64.9603 50.1055 64.3939 50.1055 63.6582V63.0918C49.4544 63.8275 48.5983 64.1953 47.5371 64.1953C46.2676 64.1953 45.2389 63.7005 44.4512 62.7109C43.6699 61.7148 43.2793 60.3965 43.2793 58.7559V58.6387ZM46.1016 58.8438C46.1016 59.8008 46.2936 60.5527 46.6777 61.0996C47.0618 61.64 47.5892 61.9102 48.2598 61.9102C49.1191 61.9102 49.7344 61.5879 50.1055 60.9434V56.5C49.7279 55.8555 49.1191 55.5332 48.2793 55.5332C47.6022 55.5332 47.0684 55.8099 46.6777 56.3633C46.2936 56.9167 46.1016 57.7435 46.1016 58.8438ZM61.0527 56.0801C60.6686 56.028 60.3301 56.002 60.0371 56.002C58.9694 56.002 58.2695 56.3633 57.9375 57.0859V64H55.1152V53.4336H57.7812L57.8594 54.6934C58.4258 53.7233 59.2103 53.2383 60.2129 53.2383C60.5254 53.2383 60.8184 53.2806 61.0918 53.3652L61.0527 56.0801ZM68.25 64C68.1198 63.7461 68.0254 63.4303 67.9668 63.0527C67.2832 63.8145 66.3945 64.1953 65.3008 64.1953C64.2656 64.1953 63.4062 63.8958 62.7227 63.2969C62.0456 62.6979 61.707 61.9427 61.707 61.0312C61.707 59.9115 62.1204 59.0521 62.9473 58.4531C63.7806 57.8542 64.9818 57.5514 66.5508 57.5449H67.8496V56.9395C67.8496 56.4512 67.7227 56.0605 67.4688 55.7676C67.2214 55.4746 66.8275 55.3281 66.2871 55.3281C65.8118 55.3281 65.4375 55.4421 65.1641 55.6699C64.8971 55.8978 64.7637 56.2103 64.7637 56.6074H61.9414C61.9414 55.9954 62.1302 55.429 62.5078 54.9082C62.8854 54.3874 63.4193 53.9805 64.1094 53.6875C64.7995 53.388 65.5742 53.2383 66.4336 53.2383C67.7357 53.2383 68.7676 53.5671 69.5293 54.2246C70.2975 54.8757 70.6816 55.7936 70.6816 56.9785V61.5586C70.6882 62.5612 70.8281 63.3197 71.1016 63.834V64H68.25ZM65.916 62.0371C66.3327 62.0371 66.7168 61.946 67.0684 61.7637C67.4199 61.5749 67.6803 61.3242 67.8496 61.0117V59.1953H66.7949C65.3822 59.1953 64.6302 59.6836 64.5391 60.6602L64.5293 60.8262C64.5293 61.1777 64.653 61.4674 64.9004 61.6953C65.1478 61.9232 65.4863 62.0371 65.916 62.0371ZM76.2285 50.8359V53.4336H78.0352V55.5039H76.2285V60.7773C76.2285 61.168 76.3034 61.4479 76.4531 61.6172C76.6029 61.7865 76.8893 61.8711 77.3125 61.8711C77.625 61.8711 77.9017 61.8483 78.1426 61.8027V63.9414C77.5892 64.1107 77.0195 64.1953 76.4336 64.1953C74.4544 64.1953 73.4453 63.196 73.4062 61.1973V55.5039H71.8633V53.4336H73.4062V50.8359H76.2285ZM85.9355 62.9258C85.2389 63.7721 84.2754 64.1953 83.0449 64.1953C81.9121 64.1953 81.0462 63.8698 80.4473 63.2188C79.8548 62.5677 79.5521 61.6139 79.5391 60.3574V53.4336H82.3613V60.2598C82.3613 61.36 82.8626 61.9102 83.8652 61.9102C84.8223 61.9102 85.4798 61.5781 85.8379 60.9141V53.4336H88.6699V64H86.0137L85.9355 62.9258ZM93.7773 64H90.9453V49H93.7773V64ZM102.234 64C102.104 63.7461 102.01 63.4303 101.951 63.0527C101.268 63.8145 100.379 64.1953 99.2852 64.1953C98.25 64.1953 97.3906 63.8958 96.707 63.2969C96.0299 62.6979 95.6914 61.9427 95.6914 61.0312C95.6914 59.9115 96.1048 59.0521 96.9316 58.4531C97.765 57.8542 98.9661 57.5514 100.535 57.5449H101.834V56.9395C101.834 56.4512 101.707 56.0605 101.453 55.7676C101.206 55.4746 100.812 55.3281 100.271 55.3281C99.7962 55.3281 99.4219 55.4421 99.1484 55.6699C98.8815 55.8978 98.748 56.2103 98.748 56.6074H95.9258C95.9258 55.9954 96.1146 55.429 96.4922 54.9082C96.8698 54.3874 97.4036 53.9805 98.0938 53.6875C98.7839 53.388 99.5586 53.2383 100.418 53.2383C101.72 53.2383 102.752 53.5671 103.514 54.2246C104.282 54.8757 104.666 55.7936 104.666 56.9785V61.5586C104.673 62.5612 104.812 63.3197 105.086 63.834V64H102.234ZM99.9004 62.0371C100.317 62.0371 100.701 61.946 101.053 61.7637C101.404 61.5749 101.665 61.3242 101.834 61.0117V59.1953H100.779C99.3665 59.1953 98.6146 59.6836 98.5234 60.6602L98.5137 60.8262C98.5137 61.1777 98.6374 61.4674 98.8848 61.6953C99.1322 61.9232 99.4707 62.0371 99.9004 62.0371ZM110.213 50.8359V53.4336H112.02V55.5039H110.213V60.7773C110.213 61.168 110.288 61.4479 110.438 61.6172C110.587 61.7865 110.874 61.8711 111.297 61.8711C111.609 61.8711 111.886 61.8483 112.127 61.8027V63.9414C111.574 64.1107 111.004 64.1953 110.418 64.1953C108.439 64.1953 107.43 63.196 107.391 61.1973V55.5039H105.848V53.4336H107.391V50.8359H110.213ZM116.57 64H113.738V53.4336H116.57V64ZM113.572 50.6992C113.572 50.276 113.712 49.9277 113.992 49.6543C114.279 49.3809 114.666 49.2441 115.154 49.2441C115.636 49.2441 116.02 49.3809 116.307 49.6543C116.593 49.9277 116.736 50.276 116.736 50.6992C116.736 51.1289 116.59 51.4805 116.297 51.7539C116.01 52.0273 115.63 52.1641 115.154 52.1641C114.679 52.1641 114.295 52.0273 114.002 51.7539C113.715 51.4805 113.572 51.1289 113.572 50.6992ZM118.465 58.6191C118.465 57.571 118.667 56.6367 119.07 55.8164C119.474 54.9961 120.053 54.3613 120.809 53.9121C121.57 53.4629 122.452 53.2383 123.455 53.2383C124.881 53.2383 126.043 53.6745 126.941 54.5469C127.846 55.4193 128.351 56.6042 128.455 58.1016L128.475 58.8242C128.475 60.4453 128.022 61.7474 127.117 62.7305C126.212 63.707 124.998 64.1953 123.475 64.1953C121.951 64.1953 120.734 63.707 119.822 62.7305C118.917 61.7539 118.465 60.4258 118.465 58.7461V58.6191ZM121.287 58.8242C121.287 59.8268 121.476 60.5951 121.854 61.1289C122.231 61.6562 122.771 61.9199 123.475 61.9199C124.158 61.9199 124.692 61.6595 125.076 61.1387C125.46 60.6113 125.652 59.7715 125.652 58.6191C125.652 57.6361 125.46 56.8743 125.076 56.334C124.692 55.7936 124.152 55.5234 123.455 55.5234C122.765 55.5234 122.231 55.7936 121.854 56.334C121.476 56.8678 121.287 57.6979 121.287 58.8242ZM132.811 53.4336L132.898 54.6543C133.654 53.7103 134.666 53.2383 135.936 53.2383C137.055 53.2383 137.889 53.5671 138.436 54.2246C138.982 54.8822 139.262 55.8652 139.275 57.1738V64H136.453V57.2422C136.453 56.6432 136.323 56.2103 136.062 55.9434C135.802 55.6699 135.369 55.5332 134.764 55.5332C133.969 55.5332 133.374 55.8717 132.977 56.5488V64H130.154V53.4336H132.811ZM149.275 59.6348H146.932L146.6 49.7812H149.607L149.275 59.6348ZM148.104 61.1777C148.579 61.1777 148.96 61.3177 149.246 61.5977C149.539 61.8776 149.686 62.2357 149.686 62.6719C149.686 63.1016 149.539 63.4564 149.246 63.7363C148.96 64.0163 148.579 64.1562 148.104 64.1562C147.635 64.1562 147.254 64.0163 146.961 63.7363C146.674 63.4564 146.531 63.1016 146.531 62.6719C146.531 62.2422 146.674 61.8874 146.961 61.6074C147.254 61.321 147.635 61.1777 148.104 61.1777Z" fill="white"/>
</g>
<defs>
<clipPath id="clip0">
<rect width="273.56" height="496.34" fill="white"/>
</clipPath>
</defs>
</svg>
