<svg id="Camada_1" data-name="Camada 1" xmlns="http://www.w3.org/2000/svg" viewBox="0 0 750 494.37"><defs><style>.cls-1{fill:#965450;}.cls-2,.cls-7{fill:#76413b;}.cls-3{fill:#352c38;}.cls-4{fill:#ffa65b;}.cls-5{fill:#211c23;}.cls-6{fill:#ea813b;}.cls-10,.cls-18,.cls-7{opacity:0.5;}.cls-10,.cls-16,.cls-18,.cls-7,.cls-9{isolation:isolate;}.cls-21,.cls-22,.cls-8{fill:none;}.cls-9{font-size:71px;}.cls-15,.cls-16,.cls-9{fill:#fff;}.cls-16,.cls-9{font-family:RifficFree-Bold, Riffic Free;font-weight:700;}.cls-10,.cls-14{fill:#d3584f;}.cls-11{fill:#f19c7c;}.cls-12{fill:#6f96bd;}.cls-13{fill:#5b7d99;}.cls-16{font-size:81px;}.cls-17{fill:#ef978b;}.cls-18,.cls-20{fill:#d16161;}.cls-19{fill:#ffa292;}.cls-21,.cls-22{stroke:#8eb9dd;stroke-miterlimit:10;stroke-width:0.82px;}.cls-22{stroke-dasharray:10.13 10.13;}.cls-23{fill:#765e69;}.cls-24{fill:#5e4b55;}.cls-25{fill:#ffb3a6;}</style></defs><title>Prancheta 1</title><g id="OBJECTS"><path class="cls-1" d="M629.5,210.77s2.7,19.4-6.6,21.3-25.2-4.4-30.3,12.2,76.2,21,78.9,2.7-20.8,3.5-12.5-49.6C660.3,188,629.5,210.77,629.5,210.77Z"/><path class="cls-2" d="M629,224.57c2.3-.5,4.6-1,6.8-1.5a55.89,55.89,0,0,0,21.4-11,138.52,138.52,0,0,1,1.6-14.7c1.5-9.4-29.4,13.4-29.4,13.4S630.5,218.47,629,224.57Z"/><path class="cls-3" d="M674,125.17s-12.8-34.4,6.8-35.6,5.2,23.6,5.2,23.6,3.6-23.6,12.8-21.6-15.6,27.2-15.6,27.2,14.4-26.4,25.2-11.6S676.4,139.57,674,125.17Z"/><circle class="cls-4" cx="674.8" cy="124.37" r="8"/><path class="cls-1" d="M641.8,134.77s32,.7,27.6,42-42.7,43.8-54.5,30.3C600.9,191.17,597.5,130.67,641.8,134.77Z"/><path class="cls-3" d="M678,171.17s-9.6-11.2-11.5,3.6c-1.3,9.8-4.9,5.6-6.5,4s.8-15.6.8-15.6-12.4-3.6-9.6-18.8c0,0-51.2,17.6-52-12.4s32-18.4,35.6-8.8c0,0-17.2-14.8-8.4-19.6s18,20,18,20-6-18.8-2.4-20.4,8.4,17.2,8.4,17.2,15.6-10.8,29.2,5.6C679.6,126,699.6,140,678,171.17Z"/><path class="cls-1" d="M666.6,173.07s1.7-11.9,11.1-5-6.5,25.9-11.9,18.5Z"/><path class="cls-3" d="M618.3,171.77c0,2.3.8,4.1,1.7,4.1s1.7-1.8,1.7-4.1-.8-4.1-1.7-4.1S618.3,169.57,618.3,171.77Z"/><path class="cls-3" d="M644.8,171.77c0,2.3.8,4.1,1.7,4.1s1.7-1.8,1.7-4.1-.8-4.1-1.7-4.1S644.8,169.57,644.8,171.77Z"/><path class="cls-2" d="M627.7,167.17a30.1,30.1,0,0,1,0,5.2,23.36,23.36,0,0,1-.4,2.6,24.37,24.37,0,0,1-.6,2.6,18.29,18.29,0,0,1-.8,2.5c-.2.4-.3.8-.5,1.2l-.6,1.2-.6,1.2a21.46,21.46,0,0,1-1.5,2.2l-.9,1-.4-1.5c1.3.5,2.6,1.1,3.9,1.7.7.3,1.3.6,1.9.9a17.38,17.38,0,0,1,1.9,1l-2.1-.3c-.7-.1-1.4-.3-2.1-.4-1.4-.3-2.8-.7-4.1-1l-1.2-.3.8-1.2.7-1a5.3,5.3,0,0,0,.6-1,10.91,10.91,0,0,0,.6-1.1c.2-.4.4-.7.6-1.1a11.73,11.73,0,0,1,.5-1.1,11.73,11.73,0,0,1,.5-1.1,5.64,5.64,0,0,0,.4-1.2c.1-.4.3-.8.4-1.2.3-.8.5-1.6.8-2.4a21.72,21.72,0,0,0,.7-2.4l.7-2.5Z"/><path class="cls-2" d="M641.2,193.47a9.93,9.93,0,0,1-3.4,4.2,8.68,8.68,0,0,1-5.4,1.7,9.88,9.88,0,0,1-5.4-1.7c-.8-.5-1.4-1.2-2.1-1.7-.6-.7-1.2-1.4-1.7-2.1.8.4,1.6.9,2.3,1.3l1.2.6a5.36,5.36,0,0,0,1.1.5,11.08,11.08,0,0,0,9.2,0A34.05,34.05,0,0,0,641.2,193.47Z"/><path class="cls-3" d="M633.9,164.07a5.45,5.45,0,0,1,.4-1,14.48,14.48,0,0,1,1.5-2.3,13.32,13.32,0,0,1,3-2.7,7.39,7.39,0,0,1,2.2-1,7,7,0,0,1,2.5-.5,7.44,7.44,0,0,1,2.6.2l.6.2.6.2a5.36,5.36,0,0,1,1.1.5,8.62,8.62,0,0,1,1.8,1.4,17.38,17.38,0,0,1,1.3,1.5c.3.5.6,1,.8,1.4a9.74,9.74,0,0,1,.5,1.1c.2.6.3,1,.3,1s-.3-.2-.8-.6c-.2-.2-.6-.4-.9-.7a12.49,12.49,0,0,0-1.2-.9,1.61,1.61,0,0,0-.7-.4c-.2-.1-.5-.3-.7-.4a7.74,7.74,0,0,0-1.6-.7,8.45,8.45,0,0,0-1.7-.5,10.87,10.87,0,0,0-1.8-.1c-2.4.1-4.9,1.4-6.7,2.4-.9.5-1.7,1-2.3,1.4S633.9,164.07,633.9,164.07Z"/><path class="cls-3" d="M609.3,166.77a3.5,3.5,0,0,1,.2-1,15.31,15.31,0,0,1,.9-2.4,10.25,10.25,0,0,1,2.4-2.9,6.15,6.15,0,0,1,1.9-1.2,8.44,8.44,0,0,1,2.4-.6,7.07,7.07,0,0,1,2.5.2,6.67,6.67,0,0,1,2.1.9,10.1,10.1,0,0,1,1.6,1.3c.4.5.8.9,1.1,1.3s.6.9.8,1.2a9.25,9.25,0,0,1,.5,1l.3.9s-.3-.2-.8-.5-1.2-.8-2-1.3a14.8,14.8,0,0,0-1.3-.8c-.5-.2-.9-.5-1.4-.7-.2-.1-.5-.2-.7-.3s-.5-.1-.7-.2a7.57,7.57,0,0,0-1.5-.1,4,4,0,0,0-1.5.3c-.5.2-1,.4-1.4.6a24,24,0,0,0-2.6,1.8,17.54,17.54,0,0,0-1.8,1.5Z"/><path class="cls-2" d="M668.4,184.37l1.5-.9c.2-.2.5-.3.6-.5l.3-.3c.1-.1.2-.2.2-.3l.1-.1V182c0-.1-.1-.1-.1-.2s-.1-.1-.2-.2-.4-.3-.5-.4-.5-.2-.7-.3l-.4-.2-.1-.4c-.2-1.1-.3-2.2-.4-3.3a18.21,18.21,0,0,1,.1-3.3,9,9,0,0,1,1.1-3.4,4.63,4.63,0,0,1,1.6-1.5,4.22,4.22,0,0,1,2.2-.3c.2,0,.3.1.5.1l.2.1h.3l.7.3a4.84,4.84,0,0,1,1.6,1.3,1.38,1.38,0,0,1,.3.4l.2.4a3.55,3.55,0,0,1,.4.9,5.66,5.66,0,0,1,.3,1.8c0,.6-.1,1.2-.1,1.7a7.49,7.49,0,0,1-.4,1.6,11.08,11.08,0,0,1-1.4,2.9c.2-1,.4-2.1.5-3.1a7.57,7.57,0,0,1,.1-1.5c0-.5-.1-1-.1-1.5a5,5,0,0,0-.4-1.3,2.19,2.19,0,0,0-.3-.5l-.2-.3-.2-.2-.4-.4c-.2-.1-.2-.2-.5-.3l-.8-.3h-.4a1.48,1.48,0,0,0-1.6.8,8.15,8.15,0,0,0-.9,2.5c-.1,1-.3,2-.3,3s-.1,2.1,0,3.1l-.4-.6c.3.2.5.4.8.6l.4.4.4.4c.1.2.2.3.3.5s.2.4.1.7,0,.5-.2.6l-.1.3-.2.2c-.1.1-.3.2-.4.3s-.3.2-.4.3a5.9,5.9,0,0,1-.8.4C669.5,184.17,669,184.27,668.4,184.37Z"/><path class="cls-3" d="M690.8,399.47c-8.8-41.6-38.4-78.4-38.4-78.4H585.2s-40,59.2-37.6,109.6a253.61,253.61,0,0,0,11.1,63.7h55.5l3-56.5s7.2,31.3,17.9,56.5h56.8C694.2,470.87,696.9,428.27,690.8,399.47Z"/><path class="cls-5" d="M606,354.07c17.2,4,34.9,5.4,52.5,6.1l18.6.6A237.56,237.56,0,0,0,652.5,321H585.3s-5.8,8.6-12.9,22.1C583.1,348.17,594.9,351.57,606,354.07Z"/><path class="cls-5" d="M558.8,494.37h55.4l2.8-57.7c-31.4-13.5-51.3-29.8-63.4-48.3-4.1,13.8-6.6,28.4-6,42.3A258.44,258.44,0,0,0,558.8,494.37Z"/><path class="cls-2" d="M574.3,256.77s-20.2,49.9-15.5,56.3,38.4,8.3,38.4,8.3l-3.8-57Z"/><path class="cls-4" d="M607.7,230.77s-19-2.6-28.4,12.5-13.4,26.3-13.4,26.3l19.1,7.9Z"/><path class="cls-6" d="M578.3,244.77A57.9,57.9,0,0,0,590.6,266l-5.5,11.4-19.1-7.9C565.9,269.47,569.6,259.07,578.3,244.77Z"/><path class="cls-4" d="M575.9,282.07c.5-13,5.7-36.4,17.7-43.4,5.2-3,8.7-6.9,14-7.9,2.1,11.2,8.1,20.5,22.4,20,16.4-.6,26.7-10.1,30.7-22.1,13.3,0,23.4,6.8,25.9,21.6,3.8,22.8-39.1,71.5-39.1,71.5s-46.2,7.2-63.7,2C583.8,323.67,575.5,293.47,575.9,282.07Z"/><path class="cls-6" d="M626.9,281c21.8-6.6,44.8-17.6,57.9-36.9a25.73,25.73,0,0,1,1.8,6.1c3.8,22.8-39.1,71.5-39.1,71.5s-46.2,7.2-63.7,2c0,0-7.5-27.5-7.8-39.9C592.5,287.37,610.1,286.07,626.9,281Z"/><path class="cls-1" d="M688.4,281.07s-14,60.4-24,62.8-96-2.8-100.8-11.6,5.6-15.2,5.6-15.2l76.8-2.4,11.6-42Z"/><path class="cls-2" d="M685.3,293.37c1.9-7.2,3.1-12.3,3.1-12.3l-30.8-8.4-2.6,9.6C664.7,287,674.8,291.27,685.3,293.37Z"/><path class="cls-4" d="M660.7,228.57s31.7.7,33.3,19.3a88.75,88.75,0,0,1-5.2,39.2s-20.2-2.5-35.8-9Z"/><path class="cls-1" d="M562.1,291.47s-11.2,31.6-3.2,35.6,77.2-8.8,77.2-8.8,18.4,28.4,4-1.6c0,0,23.6,26.8,6-2,0,0,28.4,24,2.4-4.4,0,0,32,20,1.6-5.6,0,0-9.2-5.6-24-3.2s-50.4,2.8-50.4,2.8Z"/><path class="cls-7" d="M562.1,291.47s-11.2,31.6-3.2,35.6,77.2-8.8,77.2-8.8,18.4,28.4,4-1.6c0,0,23.6,26.8,6-2,0,0,28.4,24,2.4-4.4,0,0,32,20,1.6-5.6,0,0-9.2-5.6-24-3.2s-50.4,2.8-50.4,2.8Z"/><path class="cls-4" d="M578.6,123.47c-13.6,7.2-27.5,8.8-41.9,4.8a49.82,49.82,0,0,1-24.4-15.4A57.89,57.89,0,0,1,499,86.67a59.28,59.28,0,0,1,.7-29.3c3.9-14.1,11.9-24.6,23.9-31.8s25.8-8.5,41.5-4.1q22.95,6.45,34.8,26.1t5.5,42.1Q599,112.62,578.6,123.47Z"/><polygon class="cls-4" points="566.7 120.07 591.4 154.47 578.1 113.57 566.7 120.07"/><rect class="cls-8" x="522.4" y="43.47" width="63" height="61"/><text class="cls-9" transform="translate(535.58 100.66)">?</text><path class="cls-10" d="M312.5,228.17c-2.4,3.6-37.1,152-3.6,225l34.7-222.7Z"/><path class="cls-11" d="M312.5,228.17c-2.4,3.6-37.1,152-3.6,225l34.7-222.7Z"/><path class="cls-12" d="M358.8,204.67s-33-14.9-46.3,17-16,36.7-16,36.7l30.3,13.8Z"/><path class="cls-13" d="M314.4,217.77a35.36,35.36,0,0,0-1.9,3.9c-13.3,31.9-16,36.7-16,36.7l30.3,13.8,9.4-19.8C327.6,241.87,320.7,230,314.4,217.77Z"/><path class="cls-4" d="M308.9,373s-14.8,78.3-10,121.4h57.5l.5-45.6h10.8l15.3,45.6h61.5s-24.1-113-24.1-123.8S308.9,373,308.9,373Z"/><path class="cls-6" d="M321.4,391.67a355.91,355.91,0,0,0,63.4,7.2,349.53,349.53,0,0,0,39.7-1.4c-2.5-13.6-4.2-24-4.2-26.9,0-10.8-111.3,2.4-111.3,2.4s-1,5.7-2.3,14.8A122.26,122.26,0,0,0,321.4,391.67Z"/><path class="cls-6" d="M301.1,432.37c-2.3,23.8-4.3,43.6-2.2,62h57.5l.5-45.6h.1C356.7,448.17,328.1,443.67,301.1,432.37Z"/><path class="cls-11" d="M399.8,96.67s80.3-11.7,92.6,1.6-41,120.8-41,120.8l-30.9-17.6,27.7-72.4-61.7-6.9Z"/><path class="cls-10" d="M442.8,117.17c3.9-7.7,8.1-16.7,5.9-25-24.1.9-48.9,4.5-48.9,4.5l-13.3,25.5,50.2,5.6C438.8,124.27,440.9,120.77,442.8,117.17Z"/><path class="cls-10" d="M436.7,159.27l-16.1,42.2,30.9,17.6s10.6-21.5,21.3-46.4C462.2,165.27,449.3,160.87,436.7,159.27Z"/><path class="cls-11" d="M373.5,178.17s2,23.9-9.2,26.3-28.7-13.6-33.9,10,104.5,47.1,118.5,26.3,11.6-80.2-12.4-57.1-24.3,12.4-24.3,2.4,11.2-48.7,11.2-48.7Z"/><path class="cls-10" d="M409,166.77q-2.7-6.6-5.7-12.9l-29.9,24.4s1,12.2-2.5,20.1a53.73,53.73,0,0,0,8-1.5c7.4-1.8,15.6-4.4,20.8-10.2a99.73,99.73,0,0,0,11-15.6C410.2,169.57,409.6,168.17,409,166.77Z"/><path class="cls-12" d="M358.8,204.67s1,21.8,23.9,21.8c27.7,0,37.2-30.9,37.2-30.9l10.1-29.3s31.4-2.1,39.9,21.3l-22.3,66s-28.2,94.2-22.9,125.6c0,0-76.6,21.3-120.2-3.7,0,0,7.9-122.3,22.3-163.3C333.3,194,358.8,204.67,358.8,204.67Z"/><path class="cls-13" d="M441.1,277.27c-.9.9-1.9,1.7-2.8,2.5-7.9,6.6-16.7,11.7-25.8,16.5-10.5,5.6-21.1,10.9-31.9,15.6-20.8,9.1-42.6,16.4-65,20.2-2.5.4-5,.8-7.5,1.1-2.2,24.3-3.4,42.1-3.4,42.1,43.6,25,120.2,3.7,120.2,3.7C421.2,357.77,433.1,307.37,441.1,277.27Z"/><path class="cls-11" d="M417.7,142.27s5.3-22.5,13.4-12-6.2,27.1-14.2,21.9S417.7,142.27,417.7,142.27Z"/><path class="cls-11" d="M398.6,92.07s-23.1-2.7-29.9,13.2-26.4,76.9,2.8,75.2,44.9-11,50.9-52S398.6,92.07,398.6,92.07Z"/><path class="cls-3" d="M442,99.67c-1-12.4-15.7-10.1-15.7-10.1s2.1-19.3-12.2-23.1-21.4,17-35.1,5.6-18.8-3.9-25.8,3.3c0,0,8.3-5.5,12.3,1.9,0,0-9.4-8.3-15.2,7.7,0,0,4.4-7.5,11.9-3.9-3.6.3-6.2,1.4-7,3.7-4.1,12.3,15.3,25.8,34.8,21.2s27.6-8.3,27.6-8.3-11.5,15.5,2.7,21.4c0,0-12.5,43-23,44.5s3-15.6-10.1-17.4-23.9-6.4-29,15.4c-3.4,14.6-2.7-8.5-2.7-8.5s-11.1,26.5-.9,31.8,52.2,14.7,60.8-24.3c6.6-29.7,9.1-36.8,15.5-30.7C430.9,129.87,443,112,442,99.67Z"/><path class="cls-3" d="M364.5,116.07a6.17,6.17,0,0,1,.1-.9,10.57,10.57,0,0,1,.7-2.2,8,8,0,0,1,.9-1.4,4.35,4.35,0,0,0,.6-.7,5.55,5.55,0,0,1,.8-.6,4.81,4.81,0,0,1,2.2-.8,7.07,7.07,0,0,1,2.5.2,9.46,9.46,0,0,1,2,1.1,9.27,9.27,0,0,1,1.4,1.4,9,9,0,0,1,1.5,2.9,7.25,7.25,0,0,1,.4,3.1,5.17,5.17,0,0,1-.7-.6,15.79,15.79,0,0,1-1.6-1.4,19.58,19.58,0,0,0-2.1-1.8l-1.1-.8a9.25,9.25,0,0,0-1-.5c-.3-.1-.6-.1-.9-.2a4.4,4.4,0,0,0-1,.2,1.42,1.42,0,0,1-.6.2l-.6.3a6.73,6.73,0,0,0-1.1.7,8.79,8.79,0,0,0-1,.6,9.22,9.22,0,0,1-.8.5A2.3,2.3,0,0,1,364.5,116.07Z"/><path class="cls-14" d="M377.2,120.57a38.19,38.19,0,0,1-1.1,5.7c-.2.9-.5,1.8-.8,2.8s-.6,1.8-1,2.7a16,16,0,0,1-1.2,2.7l-.6,1.3c-.2.4-.5.9-.7,1.3s-.5.8-.8,1.3-.5.8-.8,1.2l-.9,1.2-1,1.1-.4-1.6a20.94,20.94,0,0,1,2.3.8,20.94,20.94,0,0,0,2.3.8c1.5.6,3,1.2,4.5,1.9-1.6-.2-3.2-.4-4.8-.7-.8-.2-1.6-.3-2.4-.5s-1.6-.3-2.4-.5l-1.4-.3,1-1.2.8-1.1a10.47,10.47,0,0,1,.8-1.1,7.46,7.46,0,0,0,.7-1.2c.2-.4.5-.8.7-1.2.4-.8.9-1.6,1.3-2.5.2-.4.4-.8.6-1.3s.4-.8.6-1.3c.4-.8.8-1.7,1.2-2.6l1.2-2.6,1.2-2.6A9.1,9.1,0,0,1,377.2,120.57Z"/><path class="cls-14" d="M422.7,148.47a8.64,8.64,0,0,0,1-1.6c.1-.3.2-.5.3-.8v-.7c0-.1,0-.2-.1-.2l-.2-.2c-.1,0-.1-.1-.3-.1s-.2-.1-.3-.1-.3-.1-.4-.1-.2-.1-.4-.1l-.8-.1-1-.1.2-1.1a18.24,18.24,0,0,1,.7-2.5,23.4,23.4,0,0,1,.9-2.4,13.44,13.44,0,0,1,1.2-2.4,7.7,7.7,0,0,1,1.9-2.2,3.9,3.9,0,0,1,1.6-.7,2.56,2.56,0,0,1,1.8.4l.3.3h0l.1.1.1.1.1.1c.1.2.3.3.4.5a8.34,8.34,0,0,1,.8,1.2,6.94,6.94,0,0,1,.5,1.3,3.3,3.3,0,0,1,0,1.4,4.12,4.12,0,0,1-1.1,2.4,4.92,4.92,0,0,0,.2-2.4,4.51,4.51,0,0,0-.3-1.1,4.7,4.7,0,0,0-.6-.9c-.2-.3-.5-.5-.7-.8a2.18,2.18,0,0,0-.5-.4l-.1-.1h-.1l-.2-.1a1.27,1.27,0,0,0-.6-.1c-.2,0-.4.2-.6.4a5.86,5.86,0,0,0-1.3,1.7c-.4.7-.7,1.4-1.1,2.1a21.4,21.4,0,0,1-1,2.2c-.3.7-.6,1.5-.9,2.3l-.8-1.2,1,.2c.2,0,.3.1.5.2s.3.1.5.2.3.2.5.3.3.3.5.4a.71.71,0,0,1,.3.6,1.48,1.48,0,0,1,.1.7c0,.2-.1.4-.1.6s-.1.3-.2.5a5.55,5.55,0,0,1-.6.8A2.34,2.34,0,0,1,422.7,148.47Z"/><path class="cls-15" d="M387.2,152.67s-19,17.9-23.9,0Z"/><path class="cls-3" d="M371.2,124.67c-.6,2.6-1.9,4.5-2.9,4.3s-1.2-2.5-.6-5.1,1.9-4.5,2.9-4.3S371.9,122.07,371.2,124.67Z"/><path class="cls-3" d="M395.5,127.77c-.6,2.6-1.9,4.5-2.9,4.3s-1.2-2.5-.6-5.1,1.9-4.5,2.9-4.3S396.2,125.17,395.5,127.77Z"/><path class="cls-3" d="M389.6,118.77a6.17,6.17,0,0,1,.1-.9,10.57,10.57,0,0,1,.7-2.2,8,8,0,0,1,.9-1.4,4.35,4.35,0,0,0,.6-.7,5.55,5.55,0,0,1,.8-.6,4.81,4.81,0,0,1,2.2-.8,7.07,7.07,0,0,1,2.5.2,9.46,9.46,0,0,1,2,1.1,9.27,9.27,0,0,1,1.4,1.4,9,9,0,0,1,1.5,2.9,7.25,7.25,0,0,1,.4,3.1,5.17,5.17,0,0,1-.7-.6,15.79,15.79,0,0,1-1.6-1.4,19.58,19.58,0,0,0-2.1-1.8l-1.1-.8a9.25,9.25,0,0,0-1-.5c-.3-.1-.6-.1-.9-.2a4.4,4.4,0,0,0-1,.2,1.42,1.42,0,0,1-.6.2l-.6.3a6.73,6.73,0,0,0-1.1.7,8.79,8.79,0,0,0-1,.6,9.22,9.22,0,0,1-.8.5C389.9,118.67,389.6,118.77,389.6,118.77Z"/><path class="cls-12" d="M315.4,101.47a50.46,50.46,0,0,1-38.1,6.8,45.19,45.19,0,0,1-23.2-12.7,53.47,53.47,0,0,1-13.7-23.3,54.55,54.55,0,0,1-1-26.9c2.8-13.1,9.5-23.3,20.1-30.5s23.2-9.3,37.8-6.1c14.3,3.1,25.4,10.4,33.4,21.9S341.1,55,338.1,69C334.9,83.17,327.4,94.07,315.4,101.47Z"/><polygon class="cls-12" points="300.9 96.57 336.7 135.57 314.3 92.37 300.9 96.57"/><rect class="cls-8" x="258.9" y="21.97" width="63" height="71"/><text class="cls-16" transform="translate(269.5 87.22)">?</text><path class="cls-17" d="M117,188.57s-1.2,21.3,9,22.5,27-7,34,10.6-66.7,36.8-71.2,17.2,4.1-43,.8-52.8S117,188.57,117,188.57Z"/><path class="cls-18" d="M90.3,191.47a59.06,59.06,0,0,0,12.5,9.2,38.8,38.8,0,0,0,16.3,4c-2.7-6.7-2.1-16.1-2.1-16.1s-30.7-12.3-27.4-2.5A17.27,17.27,0,0,1,90.3,191.47Z"/><path class="cls-2" d="M106.3,107.47s19.3-9.6,32.3.5,20.4,59.7,7.1,85.1c0,0,3-27.2-7.9-50.8,0,0,14.2,28.4.8,52.2Z"/><path class="cls-19" d="M103.3,119.57s-34.9,3.2-26.4,44.3,50.3,41.3,60.3,25.8S151.4,112.07,103.3,119.57Z"/><path class="cls-2" d="M53.9,116.27s3.8-26.5-16.1-24-25.6,32.3-2,35.9c0,0-17.4,5.6-17.4-10.8,0,0-4.8,15.1,13.1,15.7,0,0-9.5,3.3-15.2-2.8,0,0,12,17.8,31.9,2.8S53.9,116.27,53.9,116.27Z"/><path class="cls-12" d="M44.1,123.87A12.15,12.15,0,1,0,56,111.47,12.17,12.17,0,0,0,44.1,123.87Z"/><path class="cls-1" d="M112.5,115s8,35.7-19.7,65c0,0,3.3-12,3.1-22.8a34.77,34.77,0,0,1-10.6,23.7s6.9-28.4-4.6-27.4-5.8,24.4,2.9,21.5l3.1,13.1S48.1,171,47.3,134.37s55.1-39.3,63.1-28.5C112.3,108.57,112.5,115,112.5,115Z"/><path class="cls-2" d="M111.6,144.67c-8.3-.5-16.3-1.9-24.1-6.1-11.7-6.3-18.5-19.8-20.9-33.2-11.1,5.1-19.8,14.3-19.4,28.9C48,170.87,86.6,188,86.6,188l-3.1-13.1c-8.7,3-14.4-20.4-2.9-21.5s4.6,27.4,4.6,27.4a34.72,34.72,0,0,0,10.6-23.7c.2,10.7-3.1,22.7-3.1,22.7A73.09,73.09,0,0,0,111.6,144.67Z"/><path class="cls-19" d="M86.8,160.77s.5-12.4-10.3-7.1,1.8,27.5,8.6,20.9Z"/><path class="cls-20" d="M82.9,171.77a8,8,0,0,1-1.6-.8c-.3-.2-.5-.3-.8-.5l-.3-.3a1.38,1.38,0,0,1-.3-.4.76.76,0,0,1-.2-.5.64.64,0,0,1,0-.6,1.42,1.42,0,0,1,.2-.6.78.78,0,0,1,.4-.4c.3-.3.6-.4.8-.6l.9-.4-.4.4c.3-1,.4-2.1.6-3.1a16.28,16.28,0,0,0,.3-3.1,8.85,8.85,0,0,0-.4-2.9,2.05,2.05,0,0,0-1.8-1.4h-.6l-.8.1c-.3,0-.4.2-.6.2s-.4.2-.6.3l-.3.2-.2.3a1.76,1.76,0,0,0-.4.5,3.79,3.79,0,0,0-.6,1.3,8.33,8.33,0,0,0-.4,1.5c-.1.5-.1,1-.2,1.6a17.09,17.09,0,0,0,0,3.2,11.43,11.43,0,0,1-.7-3.2,9.7,9.7,0,0,1-.1-1.7,9.85,9.85,0,0,1,.2-1.7,5.78,5.78,0,0,1,.6-1.7,3.51,3.51,0,0,1,.5-.8l.3-.4a1.38,1.38,0,0,1,.4-.3,5.56,5.56,0,0,1,1.7-.9l.8-.2h1a2.81,2.81,0,0,1,1.9.7,3.11,3.11,0,0,1,1.2,1.6,8.74,8.74,0,0,1,.5,3.5,13.32,13.32,0,0,1-.5,3.4,16.81,16.81,0,0,1-.9,3.2l-.1.3-.3.1a2.35,2.35,0,0,1-.8.2,2.51,2.51,0,0,0-.7.4c-.1.1-.2.1-.2.2s-.1.1-.1.2-.1.2,0,.3v.2l.1.2c0,.1.1.2.2.3s.2.2.2.3l.6.6A7.89,7.89,0,0,0,82.9,171.77Z"/><path class="cls-20" d="M127.8,154.27l1.7,3.7.9,1.8.9,1.8c.3.6.7,1.1,1,1.7.2.3.4.5.6.8s.4.5.6.8.4.5.6.7a4.35,4.35,0,0,0,.7.6l.7.5.8.4,1.2.6-.9.7a29.77,29.77,0,0,1-2.9,2c-1,.6-2,1.3-3,1.8.8-.9,1.6-1.7,2.4-2.5s1.7-1.6,2.6-2.4l.3,1.2-1.1-.4c-.3-.2-.7-.4-1-.6a5.72,5.72,0,0,1-.8-.7,2.7,2.7,0,0,1-.7-.8,5.5,5.5,0,0,1-.7-.9l-.6-.9-.5-.9-.5-.9a3,3,0,0,1-.4-1,10.37,10.37,0,0,1-.4-1c-.2-.7-.4-1.3-.6-2A21.66,21.66,0,0,1,127.8,154.27Z"/><path class="cls-2" d="M128.4,150.27a8.28,8.28,0,0,1,.5-3,7.74,7.74,0,0,1,2.9-4.1,5,5,0,0,1,2-.8,5.34,5.34,0,0,1,2.2.2,2.47,2.47,0,0,1,.9.4,5.58,5.58,0,0,1,.8.5,4.35,4.35,0,0,1,.7.6l.6.6a9.38,9.38,0,0,1,.9,1.2c.3.4.4.8.6,1.1a3.55,3.55,0,0,1,.4.9c.2.5.3.8.3.8s-.3-.2-.7-.5a4.35,4.35,0,0,0-.7-.6c-.3-.2-.6-.5-.9-.7a10.47,10.47,0,0,0-1.1-.8c-.2-.1-.4-.3-.6-.4l-.6-.3a6.12,6.12,0,0,0-1.2-.5,4.87,4.87,0,0,0-1.2-.1,3.58,3.58,0,0,0-1.1.4,7.63,7.63,0,0,0-1.1.8,18,18,0,0,0-1.9,2c-.5.7-1,1.2-1.3,1.6A7.23,7.23,0,0,1,128.4,150.27Z"/><path class="cls-15" d="M136.2,176.77s-12.4,11.9-17.7,1.2Z"/><path class="cls-3" d="M137,156.77c0,2-.7,3.5-1.5,3.5s-1.5-1.6-1.5-3.5.7-3.5,1.5-3.5S137,154.87,137,156.77Z"/><ellipse class="cls-3" cx="115.8" cy="158.47" rx="1.5" ry="3.5"/><path class="cls-2" d="M107.9,153.57a8.28,8.28,0,0,1,.5-3,7.74,7.74,0,0,1,2.9-4.1,5,5,0,0,1,2-.8,5.34,5.34,0,0,1,2.2.2,2.47,2.47,0,0,1,.9.4,5.58,5.58,0,0,1,.8.5,4.35,4.35,0,0,1,.7.6l.6.6a9.38,9.38,0,0,1,.9,1.2c.3.4.4.8.6,1.1a3.55,3.55,0,0,1,.4.9c.2.5.3.8.3.8s-.3-.2-.7-.5a4.35,4.35,0,0,0-.7-.6c-.3-.2-.6-.5-.9-.7a10.47,10.47,0,0,0-1.1-.8c-.2-.1-.4-.3-.6-.4l-.6-.3a6.12,6.12,0,0,0-1.2-.5,4.87,4.87,0,0,0-1.2-.1,3.58,3.58,0,0,0-1.1.4,7.63,7.63,0,0,0-1.1.8,18,18,0,0,0-1.9,2c-.5.7-1,1.2-1.3,1.6S107.9,153.57,107.9,153.57Z"/><path class="cls-12" d="M113.2,301.07s-37.6,20.7-48,81.3,19.6,113.5,19.6,113.5H187.9s27.3-67.1,4.9-144-30.6-69.3-30.6-69.3Z"/><path class="cls-21" d="M96.3,337.67s-.7,1.7-1.7,4.6"/><path class="cls-22" d="M91.2,351.87c-5.8,17.7-14.1,48.2-10.8,68.8,3.5,21.7,10.6,50.4,14.4,65.1"/><path class="cls-21" d="M96.1,490.57c.8,3,1.3,4.7,1.3,4.7"/><path class="cls-13" d="M106.6,328.77c41.9,12,76.3-.2,78.9-1-16.8-51.2-23.1-45.2-23.1-45.2l-49.1,18.6s-10.2,5.6-21.5,19.6A42.88,42.88,0,0,0,106.6,328.77Z"/><path class="cls-13" d="M197.3,370.37c-9.4,15.9-29.1,33.3-48.9,40.4,1.9,30.3,1.6,54.8,1.5,85.1h38S210.9,439.27,197.3,370.37Z"/><path class="cls-19" d="M180.4,233.17s26.2,52.4,21.7,59.7-40.9,12.3-40.9,12.3l-.8-62.2Z"/><path class="cls-17" d="M179.4,258.07c3.5-1.5,7.1-2.8,10.6-4.4-5-11.3-9.7-20.5-9.7-20.5L160.2,243l.3,24.4C167,264.47,173,260.87,179.4,258.07Z"/><path class="cls-23" d="M142,207.77s20.4-4.5,31.9,11.1,16.8,27.4,16.8,27.4l-20.1,10.2Z"/><path class="cls-24" d="M175.1,220.57a64,64,0,0,1-11.5,24.1l7,11.9,20.1-10.2A170.05,170.05,0,0,0,175.1,220.57Z"/><path class="cls-23" d="M180.8,260.77c-1.6-14-9.3-39-22.9-45.6-5.9-2.8-10.1-6.7-15.9-7.4-1.3,12.3-6.2,27.2-21.7,27.8-17.8.7-31.5-13.6-38.7-23.2-9,1.7-22.1,7-23.5,23.2-2.2,25.1,48.6,74.2,48.6,74.2s50.7,3.8,69.3-3.3C175.9,306.57,182.3,273.07,180.8,260.77Z"/><path class="cls-24" d="M125.4,264c-24.3-5.3-50.2-15.2-66-35a26.46,26.46,0,0,0-1.4,6.7c-2.2,25.1,48.6,74.2,48.6,74.2s50.7,3.8,69.3-3.3c0,0,5.8-30.4,5.1-44C163.3,268,144.1,268,125.4,264Z"/><path class="cls-19" d="M185.7,279s-80.6,19.2-86.3,35.2-3.3,25,1.6,6.1c0,0-9,33.1,3.3,4.5,0,0-7,32.7,5.7-2.5,0,0,11.5,22.5,4.5-2.9,0,0,96.3-4.4,87.7-31.9C193.7,260.27,185.7,279,185.7,279Z"/><path class="cls-19" d="M64.6,260.57s22.9,58.5,48.3,56.5-25.4-74.5-25.4-74.5Z"/><path class="cls-23" d="M81.6,212.47s-23.9-.9-25.6,24.4S65,275,65,275s21.3-3.7,36.8-13.5Z"/><path class="cls-25" d="M85.5,234s-6.5-89.2.6-48.2c0,0,1-35.3,6.3,4.2,0,0,1.2-38.2,5.1.4,0,0,0-31.4,7,10.2s35.3,109.6,10.4,115.3C83.6,323,85.5,234,85.5,234Z"/><path class="cls-4" d="M181.9,183.87q-11.7-19.8-6.6-41.7a49.74,49.74,0,0,1,14.3-25,57.77,57.77,0,0,1,25.6-14.4,59.36,59.36,0,0,1,29.3-.5c14.2,3.3,25.1,10.8,32.8,22.5s9.6,25.4,5.9,41.3q-5.4,23.25-24.5,35.9c-12.7,8.4-26.7,10.9-41.8,7.3C201.3,205.57,189.7,197.17,181.9,183.87Z"/><polygon class="cls-4" points="184.8 171.77 159 188.87 191.7 182.97 184.8 171.77"/><rect class="cls-8" x="200.4" y="126.47" width="63" height="61"/><text class="cls-9" transform="translate(213.58 183.66)">?</text></g></svg>