<svg width="90" height="36" viewBox="0 0 90 36" fill="none" xmlns="http://www.w3.org/2000/svg">
<path d="M2.93945 31.4932V35H0.888672V25.0469H4.77148C5.51888 25.0469 6.17513 25.1836 6.74023 25.457C7.3099 25.7305 7.7474 26.1201 8.05273 26.626C8.35807 27.1273 8.51074 27.6992 8.51074 28.3418C8.51074 29.3171 8.17578 30.0872 7.50586 30.6523C6.84049 31.2129 5.91764 31.4932 4.7373 31.4932H2.93945ZM2.93945 29.832H4.77148C5.3138 29.832 5.72624 29.7044 6.00879 29.4492C6.2959 29.194 6.43945 28.8294 6.43945 28.3555C6.43945 27.8678 6.2959 27.4736 6.00879 27.1729C5.72168 26.8721 5.3252 26.7171 4.81934 26.708H2.93945V29.832Z" fill="white"/>
<path d="M17.1041 30.6865H13.1666V33.3525H17.7877V35H11.1158V25.0469H17.774V26.708H13.1666V29.0801H17.1041V30.6865Z" fill="white"/>
<path d="M23.8654 31.3564H22.2316V35H20.1808V25.0469H23.879C25.0548 25.0469 25.9617 25.3089 26.5997 25.833C27.2377 26.3571 27.5568 27.0977 27.5568 28.0547C27.5568 28.7337 27.4086 29.3011 27.1124 29.7568C26.8208 30.208 26.3764 30.568 25.7794 30.8369L27.9327 34.9043V35H25.7316L23.8654 31.3564ZM22.2316 29.6953H23.8859C24.4008 29.6953 24.7996 29.5654 25.0821 29.3057C25.3647 29.0413 25.506 28.679 25.506 28.2188C25.506 27.7493 25.3715 27.3802 25.1027 27.1113C24.8383 26.8424 24.4305 26.708 23.879 26.708H22.2316V29.6953Z" fill="white"/>
<path d="M38.1872 33.7422C37.818 34.1842 37.2962 34.5283 36.6218 34.7744C35.9473 35.016 35.1999 35.1367 34.3796 35.1367C33.5182 35.1367 32.7617 34.9499 32.11 34.5762C31.4629 34.1979 30.9616 33.651 30.6061 32.9355C30.2552 32.2201 30.0752 31.3792 30.0661 30.4131V29.7363C30.0661 28.7428 30.2324 27.8838 30.5651 27.1592C30.9024 26.43 31.3854 25.874 32.0143 25.4912C32.6478 25.1038 33.3884 24.9102 34.236 24.9102C35.4164 24.9102 36.3392 25.1927 37.0046 25.7578C37.6699 26.3184 38.0641 27.1364 38.1872 28.2119H36.1911C36.0999 27.6423 35.8971 27.2253 35.5827 26.9609C35.2728 26.6966 34.8444 26.5645 34.2975 26.5645C33.6003 26.5645 33.0693 26.8265 32.7048 27.3506C32.3402 27.8747 32.1556 28.654 32.1511 29.6885V30.3242C32.1511 31.3678 32.3493 32.1562 32.7458 32.6895C33.1423 33.2227 33.7233 33.4893 34.4889 33.4893C35.2591 33.4893 35.8083 33.3252 36.1364 32.9971V31.2812H34.2702V29.7705H38.1872V33.7422Z" fill="white"/>
<path d="M48.5784 25.0469V31.6025C48.5784 32.6917 48.2366 33.5531 47.553 34.1865C46.8739 34.82 45.9442 35.1367 44.7639 35.1367C43.6018 35.1367 42.6789 34.8291 41.9954 34.2139C41.3118 33.5986 40.9631 32.7533 40.9495 31.6777V25.0469H43.0002V31.6162C43.0002 32.2679 43.1552 32.7441 43.4651 33.0449C43.7795 33.3411 44.2125 33.4893 44.7639 33.4893C45.9169 33.4893 46.5025 32.8831 46.5207 31.6709V25.0469H48.5784Z" fill="white"/>
<path d="M59.5438 35H57.493L53.5008 28.4512V35H51.45V25.0469H53.5008L57.4998 31.6094V25.0469H59.5438V35Z" fill="white"/>
<path d="M69.8119 26.708H66.763V35H64.7123V26.708H61.7045V25.0469H69.8119V26.708Z" fill="white"/>
<path d="M76.9765 32.9492H73.3808L72.6972 35H70.5165L74.2216 25.0469H76.122L79.8476 35H77.6669L76.9765 32.9492ZM73.9345 31.2881H76.4228L75.1718 27.5625L73.9345 31.2881Z" fill="white"/>
<path d="M87.1284 32.3887C87.1284 32.0013 86.9917 31.7051 86.7182 31.5C86.4448 31.2904 85.9526 31.0716 85.2417 30.8438C84.5307 30.6113 83.9679 30.3835 83.5532 30.1602C82.423 29.5495 81.8579 28.7269 81.8579 27.6924C81.8579 27.1546 82.0083 26.6761 82.3091 26.2568C82.6144 25.833 83.0496 25.5026 83.6147 25.2656C84.1844 25.0286 84.8224 24.9102 85.5288 24.9102C86.2397 24.9102 86.8732 25.04 87.4292 25.2998C87.9852 25.555 88.4158 25.9173 88.7212 26.3867C89.0311 26.8561 89.186 27.3893 89.186 27.9863H87.1352C87.1352 27.5306 86.9917 27.1774 86.7046 26.9268C86.4175 26.6715 86.0141 26.5439 85.4946 26.5439C84.9933 26.5439 84.6037 26.651 84.3257 26.8652C84.0477 27.0749 83.9087 27.3529 83.9087 27.6992C83.9087 28.0228 84.0705 28.2939 84.394 28.5127C84.7222 28.7314 85.2029 28.9365 85.8364 29.1279C87.0031 29.4788 87.853 29.9141 88.3862 30.4336C88.9194 30.9531 89.186 31.6003 89.186 32.375C89.186 33.2363 88.8602 33.9131 88.2085 34.4053C87.5568 34.8929 86.6795 35.1367 85.5766 35.1367C84.811 35.1367 84.1138 34.9977 83.4848 34.7197C82.8559 34.4372 82.3751 34.0521 82.0425 33.5645C81.7143 33.0768 81.5503 32.5117 81.5503 31.8691H83.6079C83.6079 32.9674 84.2641 33.5166 85.5766 33.5166C86.0643 33.5166 86.4448 33.4186 86.7182 33.2227C86.9917 33.0221 87.1284 32.7441 87.1284 32.3887Z" fill="white"/>
<path d="M0 19.25V0H13.75V2.75H16.5V5.5H19.25V13.75H16.5V16.5H13.75V19.25H0ZM5.5 16.5H11V13.75H13.75V5.5H11V2.75H5.5V16.5Z" fill="#FFA755"/>
<path d="M22 19.25V0H41.25V2.75H27.5V8.25H38.5V11H27.5V16.5H41.25V19.25H22Z" fill="#FFA755"/>
<path d="M52.25 19.25V16.5H49.5V13.75H46.75V11H44V0H49.5V8.25H52.25V11H55V8.25H57.75V0H63.25V11H60.5V13.75H57.75V16.5H55V19.25H52.25Z" fill="#FFA755"/>
<path d="M75.5 13.75V11H81V8.25H83.75V5.5H75.5V8.25H70V2.75H72.75V0H86.5V2.75H89.25V8.25H86.5V11H83.75V13.75H75.5ZM75.5 19.25V16.5H83.75V19.25H75.5Z" fill="#D2DCE9"/>
</svg>
